<svg width="48" height="48" viewBox="0 0 48 48" fill="none" xmlns="http://www.w3.org/2000/svg"><path fill-rule="evenodd" clip-rule="evenodd" d="M42.3358 32C39.2496 39.0636 32.2013 44 24 44C12.9543 44 4 35.0457 4 24C4 22.6301 4.13772 21.2924 4.40007 20H29.535C30.2266 21.1956 31.5193 22 32.9999 22C35.209 22 36.9999 20.2091 36.9999 18C36.9999 15.7909 35.209 14 32.9999 14C31.5193 14 30.2266 14.8044 29.535 16H5.66417C8.7504 8.93638 15.7987 4 24 4C35.0457 4 44 12.9543 44 24C44 25.3699 43.8623 26.7076 43.5999 28H18.4647C17.7731 26.8044 16.4804 26 14.9999 26C12.7907 26 10.9999 27.7909 10.9999 30C10.9999 32.2091 12.7907 34 14.9999 34C16.4804 34 17.7731 33.1956 18.4647 32H42.3358ZM1.36565 16C4.66034 6.67846 13.5502 0 24 0C37.2548 0 48 10.7452 48 24C48 37.2548 37.2548 48 24 48C10.7452 48 0 37.2548 0 24C0 22.5994 0.119968 21.2269 0.350188 19.8921C0.350157 19.8921 0.350128 19.8921 0.350098 19.8921C0.580971 18.5535 0.922722 17.2529 1.36555 16H1.36565Z" fill="#4B4B4B"></path></svg>